<?xml version="1.0"?>
<svg width="555" height="545" xmlns="http://www.w3.org/2000/svg" xmlns:svg="http://www.w3.org/2000/svg" preserveAspectRatio="xMidYMid meet">
 <metadata>Created by potrace 1.16, written by Peter Selinger 2001-2019</metadata>
 <g class="layer">
  <title>Layer 1</title>
  <g fill="#000000" id="svg_1" transform="translate(0 545) scale(0.1 -0.1)">
   <path d="m2580,5109c-567,-50 -1066,-282 -1460,-678c-75,-75 -163,-172 -196,-216c-290,-384 -447,-801 -484,-1284c-37,-472 102,-1001 369,-1416c193,-299 506,-594 817,-768c419,-235 915,-335 1404,-282c593,63 1141,356 1535,820c216,255 392,604 484,960c37,142 65,463 56,630c-28,545 -207,1003 -549,1414c-140,167 -379,373 -576,494c-396,243 -929,367 -1400,326zm555,-43c431,-81 770,-232 1083,-484c384,-308 677,-760 792,-1221c161,-644 49,-1314 -311,-1851c-437,-652 -1144,-1032 -1919,-1033c-277,0 -487,32 -735,114c-878,291 -1497,1074 -1576,1994c-79,931 400,1803 1231,2243c223,118 522,213 775,246c150,20 534,15 660,-8z" fill="#ff0000" id="svg_2"/>
   <path d="m2935,4793c-4,-21 -2,-40 5,-48c18,-21 -16,-215 -40,-235c-10,-8 -20,-30 -22,-47c-5,-37 -19,-31 135,-57c69,-12 77,-12 77,3c0,9 3,26 6,38c5,18 1,23 -20,29c-26,6 -27,16 -11,71c3,8 24,10 73,6c65,-5 70,-4 101,23c25,23 33,39 38,80c10,94 -17,114 -207,148l-128,23l-7,-34z" fill="#ff0000" id="svg_3"/>
   <path d="m2461,4804c-57,-7 -105,-15 -108,-17c-9,-10 10,-77 22,-77c17,0 43,-232 26,-238c-12,-4 -15,-68 -3,-75c12,-7 193,17 192,26c0,4 0,21 0,37c0,23 -4,30 -20,30c-15,0 -20,7 -20,29c0,16 -3,36 -6,45c-5,12 1,16 24,16c38,0 42,-6 52,-87c5,-35 10,-67 13,-69c6,-6 132,7 145,15c12,8 1,82 -13,81c-5,-1 -13,13 -16,29c-8,37 -26,61 -47,61c-12,0 -10,6 8,25c26,27 31,95 11,134c-28,51 -80,59 -260,35z" fill="#ff0000" id="svg_4"/>
   <path d="m1968,4667c-61,-25 -78,-36 -77,-52c0,-11 8,-85 18,-165c11,-87 14,-147 9,-151c-6,-4 -3,-22 6,-43l15,-37l38,17c21,9 57,23 81,31c23,8 42,16 42,18c0,1 -7,19 -15,38c-10,23 -20,34 -29,31c-17,-7 -28,32 -12,45c6,5 23,12 37,16c20,5 28,2 33,-11c3,-9 2,-22 -3,-28c-8,-9 11,-76 21,-76c6,0 172,71 177,75c7,8 -22,65 -33,65c-7,0 -57,58 -111,130c-55,71 -104,130 -110,129c-5,0 -45,-15 -87,-32z" fill="#ff0000" id="svg_5"/>
   <path d="m3467,4668c-9,-22 -10,-35 -4,-40c15,-10 -84,-218 -104,-218c-8,0 -23,-15 -31,-34l-16,-33l89,-43c49,-23 91,-41 93,-39c2,2 11,18 20,36c14,29 15,33 0,41c-14,8 -14,12 2,45c19,39 32,45 52,25c18,-18 15,-43 -13,-98c-14,-27 -25,-54 -25,-60c0,-11 112,-70 134,-70c17,0 27,27 33,85c7,64 7,79 -1,96c-5,12 -1,18 18,23c32,8 67,57 73,104c8,57 -21,84 -163,152c-69,33 -129,60 -134,60c-6,0 -16,-15 -23,-32z" fill="#ff0000" id="svg_6"/>
   <path d="m1540,4423c-19,-10 -79,-54 -132,-97l-96,-79l21,-28c11,-16 28,-29 38,-29c22,0 162,-171 150,-183c-10,-10 26,-67 42,-67c5,0 42,26 81,57c39,32 73,58 75,60c2,1 -7,15 -20,32c-17,20 -30,28 -44,25c-15,-4 -27,4 -44,27c-23,31 -23,33 -6,46c11,7 23,13 27,13c11,0 43,-32 83,-83l30,-38l62,51l63,51l-22,30c-12,16 -28,27 -35,25c-7,-3 -26,8 -42,25c-23,22 -36,28 -54,24c-22,-6 -23,-4 -19,23c2,16 -3,42 -11,58c-34,66 -89,87 -147,57z" fill="#ff0000" id="svg_7"/>
   <path d="m3978,4400c-12,-17 -23,-39 -23,-49c0,-28 -135,-182 -154,-177c-9,3 -25,-7 -38,-23l-23,-29l132,-112l132,-113l53,59c29,33 52,61 52,64c0,3 -19,21 -41,40l-41,35l-26,-32l-26,-31l-28,20l-27,20l30,39c27,34 34,37 50,26c16,-9 23,-8 37,5c16,16 16,19 0,36c-16,17 -15,20 13,47c28,27 30,27 55,11l26,-17l-22,-30l-21,-30l23,-26c45,-47 55,-47 96,-2c21,23 42,49 47,57c10,17 13,13 -166,168l-87,75l-23,-31z" fill="#ff0000" id="svg_8"/>
   <path d="m1081,3979c-88,-123 -93,-131 -75,-144c11,-7 37,-27 58,-43l40,-30l28,39c33,45 33,48 12,64c-15,11 -15,15 6,43l23,31l53,-107c29,-59 68,-122 87,-140l34,-33l42,56l43,56l-44,47c-43,46 -113,157 -137,218c-10,25 -60,76 -73,73c-2,0 -45,-59 -97,-130z" fill="#ff0000" id="svg_9"/>
   <path d="m4310,4003c-19,-10 -43,-33 -54,-51c-18,-32 -18,-39 -6,-118c7,-46 10,-87 6,-91c-14,-14 -41,15 -41,43c0,33 -40,104 -59,104c-6,0 -27,-13 -46,-29l-35,-29l32,-66c77,-157 178,-206 262,-127c41,39 48,73 28,151c-22,82 -22,82 6,78c16,-2 22,-10 23,-29c0,-28 40,-99 56,-99c20,0 68,42 68,59c0,32 -58,135 -98,174c-47,46 -92,56 -142,30z" fill="#ff0000" id="svg_10"/>
   <path d="m2655,3979c-691,-69 -1180,-705 -1070,-1389c41,-250 155,-469 340,-655c361,-364 908,-456 1370,-231c355,172 599,500 666,895c6,36 11,122 11,191c0,331 -133,637 -377,869c-248,235 -598,354 -940,320zm443,-154c2,-11 10,-34 17,-51c11,-24 12,-38 3,-67c-9,-29 -8,-42 2,-63c11,-20 12,-29 2,-42c-7,-9 -19,-30 -26,-47c-13,-28 -48,-59 -106,-96c-26,-16 -26,-19 -29,-145c-1,-70 -6,-148 -10,-171c-5,-24 -5,-82 0,-129c5,-52 5,-92 0,-103c-6,-10 -17,-58 -26,-108c-8,-50 -22,-104 -30,-119c-12,-24 -12,-31 2,-55c15,-24 15,-35 3,-86c-7,-32 -19,-68 -26,-80c-8,-12 -14,-31 -14,-41c0,-10 -4,-22 -9,-27c-6,-6 -24,-43 -41,-83c-31,-72 -44,-157 -41,-263c1,-25 -5,-59 -14,-75c-8,-16 -17,-49 -20,-74c-4,-25 -12,-63 -19,-85c-8,-22 -19,-66 -26,-97c-9,-40 -20,-62 -36,-73c-21,-14 -24,-13 -39,7c-8,12 -15,39 -15,60c0,50 -113,404 -138,431c-11,12 -22,36 -25,52c-21,109 -30,141 -65,235c-22,58 -51,142 -65,188l-25,82l68,79c83,96 110,142 166,277c47,113 88,265 105,388c13,101 23,124 51,128c20,3 24,10 29,64c3,33 9,65 12,71c11,18 102,26 124,12c11,-7 31,-9 46,-5c22,5 27,15 37,61c13,61 22,72 40,50c17,-20 33,-19 55,5c25,28 78,24 83,-5z" fill="#ff0000" id="svg_11"/>
   <path d="m849,3566c-38,-91 -58,-150 -54,-157c3,-4 62,-49 130,-99c69,-50 125,-97 125,-104c0,-11 67,-42 75,-34c2,1 17,37 33,78l30,75l-36,16c-31,13 -39,14 -47,2c-8,-11 -13,-11 -27,-1c-15,12 -15,17 -3,46c16,36 55,46 55,13c0,-20 58,-48 71,-34c8,10 70,175 67,178c-15,11 -73,23 -77,16c-4,-5 -74,-2 -170,8l-163,17l-9,-20z" fill="#ff0000" id="svg_12"/>
   <path d="m4533,3570c-44,-26 -56,-53 -62,-140c-5,-60 -9,-75 -23,-78c-21,-4 -36,44 -20,60c7,7 6,22 -4,50c-20,58 -21,58 -70,40l-46,-17l5,-50c8,-73 45,-165 83,-202c36,-37 80,-43 139,-19c47,20 65,60 65,146c0,56 3,72 16,77c22,8 36,-16 29,-50c-2,-15 2,-45 11,-66l15,-39l39,15c21,9 41,22 44,29c9,23 -14,125 -40,175c-43,86 -111,112 -181,69z" fill="#ff0000" id="svg_13"/>
   <path d="m4625,2935l-29,-85l-93,0c-51,0 -93,-3 -93,-7c0,-5 25,-26 55,-47c103,-74 98,-63 64,-163c-16,-48 -29,-88 -29,-91c0,-2 36,22 80,53l81,57l75,-52c41,-29 77,-50 79,-49c2,2 -8,38 -21,79c-13,41 -24,82 -24,90c1,8 32,38 70,65c38,28 70,53 70,58c0,4 -42,7 -93,7l-93,0l-29,85c-16,47 -32,85 -35,85c-3,0 -19,-38 -35,-85z" fill="#ff0000" id="svg_14"/>
   <path d="m905,2855l-29,-84l-51,-6c-27,-3 -70,-6 -95,-8l-44,-2l72,-53c39,-30 72,-60 72,-67c0,-12 -33,-126 -48,-163c-3,-9 31,9 76,41l82,57l80,-56c44,-30 80,-54 80,-52c0,2 -13,44 -30,93c-16,49 -28,90 -26,92c2,2 36,28 76,58l74,55l-60,0c-32,0 -75,3 -96,6c-35,6 -37,9 -63,83c-15,42 -30,79 -34,83c-4,5 -20,-30 -36,-77z" fill="#ff0000" id="svg_15"/>
   <path d="m4276,2278c-28,-38 -60,-115 -70,-171c-14,-77 42,-137 129,-137c45,0 50,3 105,60c32,33 63,60 68,60c32,0 22,-57 -12,-70c-22,-8 -53,-81 -42,-98c3,-5 23,-15 46,-22c37,-12 42,-12 56,6c36,45 78,150 82,206c4,55 3,59 -30,92c-40,40 -94,54 -138,36c-16,-7 -52,-36 -80,-66c-28,-30 -55,-52 -60,-49c-17,11 -11,44 11,57c20,12 49,67 49,92c0,11 -53,36 -78,36c-6,0 -22,-15 -36,-32z" fill="#ff0000" id="svg_16"/>
   <path d="m1200,2229c-36,-5 -115,-10 -176,-13c-118,-5 -164,-13 -164,-27c0,-12 51,-142 60,-152c11,-13 80,21 74,37c-3,8 3,16 16,19c18,5 24,-1 37,-31c14,-33 14,-37 -3,-49c-16,-12 -20,-11 -29,1c-10,12 -16,12 -47,-2l-37,-17l36,-90c20,-49 37,-91 38,-93c5,-7 75,30 75,41c1,6 59,55 130,107c72,52 130,101 130,108c0,20 -61,172 -68,171c-4,-1 -36,-5 -72,-10z" fill="#ff0000" id="svg_17"/>
   <path d="m4128,1925c-60,-40 -127,-148 -128,-203c0,-71 85,-132 158,-113c21,6 56,24 78,41c41,31 68,38 79,19c9,-14 -24,-49 -45,-49c-14,0 -70,-67 -70,-85c0,-2 18,-16 39,-31c37,-24 41,-24 63,-10c64,42 138,162 138,224c0,64 -61,122 -127,122c-27,0 -125,-50 -138,-70c-8,-13 -45,-13 -45,1c0,22 21,49 39,49c10,0 30,17 44,39l26,39l-38,25l-38,26l-35,-24z" fill="#ff0000" id="svg_18"/>
   <path d="m1348,1878l-57,-41l31,-43c27,-38 33,-41 50,-31c16,10 23,8 45,-18l26,-30l-94,-13c-105,-14 -185,-34 -213,-55c-18,-13 -18,-16 15,-63c19,-26 37,-52 40,-57c4,-6 30,2 60,16c66,32 153,56 234,64c42,4 70,13 90,29l29,23l-25,34c-128,176 -165,226 -169,226c-3,1 -31,-18 -62,-41z" fill="#ff0000" id="svg_19"/>
   <path d="m3792,1544l-132,-116l22,-28c13,-16 30,-27 38,-24c21,5 172,-169 164,-189c-3,-8 6,-27 19,-42l23,-28l132,113c73,63 131,117 130,121c-6,18 -94,118 -103,118c-5,0 -27,-16 -48,-35l-39,-36l28,-29l28,-29l-24,-25c-26,-28 -35,-24 -72,27c-20,28 -20,30 -2,43c18,13 18,14 0,34c-17,19 -21,20 -36,6c-15,-13 -19,-12 -43,13c-33,34 -34,46 -5,66c21,15 24,14 48,-9l25,-24l43,37l42,37l-52,57l-53,57l-133,-115z" fill="#ff0000" id="svg_20"/>
   <path d="m1611,1594c-12,-15 -19,-34 -16,-42c7,-19 -133,-195 -151,-188c-7,3 -25,-9 -39,-25l-25,-31l77,-64c43,-35 81,-64 84,-64c3,0 15,14 28,31c18,24 20,33 10,45c-10,12 -7,20 16,44c27,28 30,29 47,13c26,-24 23,-35 -28,-96c-25,-31 -43,-60 -40,-65c3,-5 30,-28 61,-52l56,-43l25,24c13,13 23,30 21,39c-2,8 5,30 16,48c12,21 17,41 13,57c-5,21 -3,25 17,25c46,0 107,69 107,120c0,42 -31,79 -135,161c-59,46 -110,85 -115,87c-4,2 -17,-9 -29,-24z" fill="#ff0000" id="svg_21"/>
   <path d="m3395,1294c-66,-31 -124,-59 -128,-64c-12,-11 20,-70 39,-70c20,0 119,-211 104,-220c-13,-8 14,-84 28,-78c5,1 47,20 94,42l86,38l-16,39c-12,30 -19,38 -33,34c-13,-4 -22,3 -34,25c-20,39 -13,60 20,60c21,0 30,-11 60,-69l35,-70l70,32c38,17 70,37 70,43c0,25 -24,64 -39,64c-9,1 -25,15 -36,33c-11,18 -30,33 -43,35c-25,4 -26,6 -12,33c15,27 -4,90 -36,123c-42,41 -88,36 -229,-30z" fill="#ff0000" id="svg_22"/>
   <path d="m1985,1181c-55,-72 -106,-130 -113,-130c-11,-1 -48,-70 -40,-75c2,-2 21,-10 43,-19c22,-8 57,-23 78,-31l38,-17l15,38c11,26 13,38 5,41c-15,5 -14,27 2,39c8,7 23,6 45,-4c26,-10 33,-19 30,-36c-2,-14 -10,-22 -21,-22c-12,0 -24,-13 -33,-33l-14,-33l38,-16c20,-8 62,-26 92,-38l55,-23l18,35c13,24 15,38 8,42c-8,5 -5,53 10,164c12,87 19,163 16,171c-4,10 -149,76 -168,76c-2,0 -49,-58 -104,-129z" fill="#ff0000" id="svg_23"/>
   <path d="m2406,1175c-9,-26 -7,-65 4,-65c13,0 13,-26 -1,-150c-8,-67 -16,-100 -24,-100c-11,0 -32,-67 -23,-75c6,-5 193,-22 201,-18c14,8 7,66 -9,78c-13,9 -15,21 -9,53c7,44 19,51 50,28c16,-11 17,-22 12,-89l-7,-76l33,-5c17,-3 53,-7 78,-10l47,-5l7,37c4,23 3,38 -4,40c-6,2 -11,21 -11,43c0,25 -7,46 -20,59c-19,19 -19,19 10,49c25,25 30,37 30,78c-1,84 -36,108 -180,123c-58,5 -121,13 -141,16c-28,4 -38,1 -43,-11z" fill="#ff0000" id="svg_24"/>
   <path d="m2960,1171l-105,-17l3,-34c2,-19 10,-40 19,-47c20,-16 60,-236 44,-241c-13,-4 -14,-51 -3,-69c6,-9 30,-8 107,4c55,8 103,18 106,22c4,3 5,21 2,39c-5,27 -9,32 -33,32c-23,0 -29,5 -34,31c-9,47 -9,47 37,54c65,10 120,44 130,82c14,46 0,102 -33,135c-25,24 -36,28 -82,27c-29,-1 -100,-9 -158,-18z" fill="#ff0000" id="svg_25"/>
  </g>
 </g>
</svg>