<?xml version="1.0" encoding="UTF-8"?>
<svg xmlns="http://www.w3.org/2000/svg" xmlns:xlink="http://www.w3.org/1999/xlink" width="100px" height="24px" viewBox="0 0 100 24" version="1.1">
<g id="surface1">
<path style=" stroke:none;fill-rule:nonzero;fill:rgb(25.882353%,52.156863%,95.686275%);fill-opacity:1;" d="M 19.183594 10.875 L 19.183594 12.1875 L 22.324219 12.1875 C 22.230469 12.925781 21.984375 13.464844 21.609375 13.84375 C 21.148438 14.300781 20.433594 14.804688 19.183594 14.804688 C 17.25 14.804688 15.738281 13.246094 15.738281 11.3125 C 15.738281 9.378906 17.25 7.820312 19.183594 7.820312 C 20.226562 7.820312 20.988281 8.230469 21.550781 8.757812 L 22.472656 7.835938 C 21.695312 7.078125 20.648438 6.5 19.183594 6.5 C 16.535156 6.5 14.308594 8.65625 14.308594 11.304688 C 14.308594 13.957031 16.535156 16.113281 19.183594 16.113281 C 20.617188 16.113281 21.695312 15.644531 22.539062 14.765625 C 23.402344 13.902344 23.675781 12.679688 23.675781 11.695312 C 23.675781 11.390625 23.65625 11.109375 23.605469 10.875 Z M 19.183594 10.875 "/>
<path style=" stroke:none;fill-rule:nonzero;fill:rgb(91.764706%,26.27451%,20.784314%);fill-opacity:1;" d="M 27.601562 9.804688 C 25.886719 9.804688 24.488281 11.109375 24.488281 12.910156 C 24.488281 14.691406 25.886719 16.011719 27.601562 16.011719 C 29.316406 16.011719 30.714844 14.699219 30.714844 12.910156 C 30.714844 11.109375 29.316406 9.804688 27.601562 9.804688 Z M 27.601562 14.789062 C 26.660156 14.789062 25.851562 14.015625 25.851562 12.910156 C 25.851562 11.792969 26.660156 11.027344 27.601562 11.027344 C 28.542969 11.027344 29.351562 11.792969 29.351562 12.910156 C 29.351562 14.015625 28.542969 14.789062 27.601562 14.789062 Z M 27.601562 14.789062 "/>
<path style=" stroke:none;fill-rule:nonzero;fill:rgb(25.882353%,52.156863%,95.686275%);fill-opacity:1;" d="M 42.863281 10.5 L 42.816406 10.5 C 42.511719 10.136719 41.925781 9.804688 41.183594 9.804688 C 39.632812 9.804688 38.28125 11.15625 38.28125 12.910156 C 38.28125 14.648438 39.632812 16.011719 41.183594 16.011719 C 41.925781 16.011719 42.511719 15.679688 42.816406 15.304688 L 42.863281 15.304688 L 42.863281 15.738281 C 42.863281 16.925781 42.230469 17.558594 41.210938 17.558594 C 40.375 17.558594 39.859375 16.960938 39.644531 16.453125 L 38.457031 16.945312 C 38.800781 17.769531 39.703125 18.777344 41.210938 18.777344 C 42.804688 18.777344 44.15625 17.839844 44.15625 15.546875 L 44.15625 9.964844 L 42.863281 9.964844 Z M 41.300781 14.789062 C 40.359375 14.789062 39.644531 13.988281 39.644531 12.910156 C 39.644531 11.8125 40.359375 11.027344 41.300781 11.027344 C 42.230469 11.027344 42.957031 11.828125 42.957031 12.917969 C 42.960938 14.003906 42.230469 14.789062 41.300781 14.789062 Z M 41.300781 14.789062 "/>
<path style=" stroke:none;fill-rule:nonzero;fill:rgb(98.431373%,73.72549%,1.960784%);fill-opacity:1;" d="M 34.542969 9.804688 C 32.828125 9.804688 31.429688 11.109375 31.429688 12.910156 C 31.429688 14.691406 32.828125 16.011719 34.542969 16.011719 C 36.257812 16.011719 37.65625 14.699219 37.65625 12.910156 C 37.65625 11.109375 36.257812 9.804688 34.542969 9.804688 Z M 34.542969 14.789062 C 33.605469 14.789062 32.792969 14.015625 32.792969 12.910156 C 32.792969 11.792969 33.605469 11.027344 34.542969 11.027344 C 35.484375 11.027344 36.296875 11.792969 36.296875 12.910156 C 36.296875 14.015625 35.484375 14.789062 34.542969 14.789062 Z M 34.542969 14.789062 "/>
<path style=" stroke:none;fill-rule:nonzero;fill:rgb(20.392157%,65.882353%,32.54902%);fill-opacity:1;" d="M 45.226562 6.628906 L 46.566406 6.628906 L 46.566406 16.011719 L 45.226562 16.011719 Z M 45.226562 6.628906 "/>
<path style=" stroke:none;fill-rule:nonzero;fill:rgb(91.764706%,26.27451%,20.784314%);fill-opacity:1;" d="M 50.703125 14.789062 C 50.011719 14.789062 49.519531 14.472656 49.199219 13.847656 L 53.347656 12.132812 L 53.210938 11.78125 C 52.953125 11.085938 52.164062 9.804688 50.554688 9.804688 C 48.957031 9.804688 47.628906 11.0625 47.628906 12.910156 C 47.628906 14.648438 48.941406 16.011719 50.703125 16.011719 C 52.125 16.011719 52.949219 15.140625 53.289062 14.640625 L 52.230469 13.933594 C 51.878906 14.445312 51.398438 14.789062 50.703125 14.789062 Z M 50.609375 10.96875 C 51.160156 10.96875 51.628906 11.253906 51.785156 11.652344 L 48.980469 12.8125 C 48.980469 11.507812 49.902344 10.96875 50.609375 10.96875 Z M 50.609375 10.96875 "/>
<path style=" stroke:none;fill-rule:nonzero;fill:rgb(37.254902%,38.823529%,40.784314%);fill-opacity:1;" d="M 57.21875 16.082031 L 57.21875 7.578125 L 58.550781 7.578125 L 62.683594 14.195312 L 62.730469 14.195312 L 62.683594 12.554688 L 62.683594 7.578125 L 63.777344 7.578125 L 63.777344 16.082031 L 62.636719 16.082031 L 58.3125 9.148438 L 58.265625 9.148438 L 58.3125 10.785156 L 58.3125 16.082031 Z M 67.933594 16.273438 C 67.054688 16.273438 66.339844 15.980469 65.789062 15.394531 C 65.238281 14.808594 64.964844 14.066406 64.964844 13.171875 C 64.964844 12.324219 65.230469 11.597656 65.765625 10.988281 C 66.300781 10.378906 66.984375 10.074219 67.816406 10.074219 C 68.679688 10.074219 69.367188 10.355469 69.886719 10.917969 C 70.40625 11.480469 70.664062 12.230469 70.664062 13.171875 L 70.652344 13.375 L 66.058594 13.375 C 66.089844 13.960938 66.285156 14.425781 66.644531 14.765625 C 67.003906 15.105469 67.425781 15.277344 67.910156 15.277344 C 68.695312 15.277344 69.222656 14.941406 69.5 14.277344 L 70.476562 14.683594 C 70.285156 15.132812 69.972656 15.511719 69.539062 15.816406 C 69.101562 16.121094 68.566406 16.273438 67.933594 16.273438 Z M 69.5 12.472656 C 69.476562 12.140625 69.324219 11.824219 69.042969 11.523438 C 68.761719 11.222656 68.34375 11.070312 67.792969 11.070312 C 67.386719 11.070312 67.035156 11.199219 66.738281 11.449219 C 66.441406 11.703125 66.238281 12.046875 66.128906 12.472656 Z M 78.03125 16.082031 L 76.914062 16.082031 L 75.464844 11.617188 L 74.027344 16.082031 L 72.921875 16.082031 L 71.046875 10.261719 L 72.1875 10.261719 L 73.480469 14.660156 L 73.492188 14.660156 L 74.929688 10.261719 L 76.058594 10.261719 L 77.496094 14.660156 L 77.507812 14.660156 L 78.789062 10.261719 L 79.90625 10.261719 Z M 82.78125 16.273438 C 82.132812 16.273438 81.59375 16.117188 81.171875 15.796875 C 80.75 15.480469 80.4375 15.085938 80.238281 14.609375 L 81.214844 14.207031 C 81.523438 14.933594 82.050781 15.300781 82.792969 15.300781 C 83.132812 15.300781 83.414062 15.222656 83.628906 15.074219 C 83.847656 14.921875 83.957031 14.726562 83.957031 14.480469 C 83.957031 14.101562 83.691406 13.84375 83.160156 13.707031 L 81.984375 13.421875 C 81.613281 13.328125 81.261719 13.148438 80.929688 12.882812 C 80.597656 12.617188 80.429688 12.257812 80.429688 11.808594 C 80.429688 11.292969 80.65625 10.875 81.113281 10.554688 C 81.566406 10.234375 82.109375 10.074219 82.734375 10.074219 C 83.25 10.074219 83.707031 10.191406 84.113281 10.421875 C 84.515625 10.65625 84.804688 10.992188 84.980469 11.425781 L 84.027344 11.820312 C 83.816406 11.304688 83.371094 11.046875 82.699219 11.046875 C 82.375 11.046875 82.101562 11.113281 81.878906 11.25 C 81.65625 11.382812 81.546875 11.566406 81.546875 11.796875 C 81.546875 12.128906 81.804688 12.355469 82.316406 12.472656 L 83.46875 12.746094 C 84.015625 12.871094 84.421875 13.089844 84.683594 13.398438 C 84.941406 13.707031 85.074219 14.054688 85.074219 14.445312 C 85.074219 14.96875 84.859375 15.402344 84.433594 15.75 C 84.003906 16.097656 83.453125 16.273438 82.78125 16.273438 Z M 82.78125 16.273438 "/>
</g>
</svg>
