<svg xmlns="http://www.w3.org/2000/svg" xmlns:xlink="http://www.w3.org/1999/xlink" id="Layer_1" x="0px" y="0px" viewBox="0 0 670.4 255" style="enable-background:new 0 0 670.4 255;" xml:space="preserve"><style type="text/css">	.st0{fill:#B3B3B3;}	.st1{fill:#263238;}	.st2{fill:url(#SVGID_1_);stroke:#263238;stroke-width:1.9072;stroke-linecap:round;stroke-linejoin:round;}	.st3{fill:#FFFFFF;}			.st4{fill:url(#SVGID_00000007401493125526982580000001748954080019824807_);stroke:#263238;stroke-width:1.9072;stroke-linecap:round;stroke-linejoin:round;}			.st5{fill:url(#SVGID_00000178907476716187123010000006777225785811260812_);stroke:#263238;stroke-width:1.9072;stroke-linecap:round;stroke-linejoin:round;}			.st6{fill:url(#SVGID_00000176028552964882120180000016558306355211089027_);stroke:#263238;stroke-width:1.9072;stroke-linecap:round;stroke-linejoin:round;}	.st7{fill:#E6E6E6;}</style><g>	<g>		<path class="st0" d="M549.9,105.2c-0.1-0.4-0.2-0.9-0.3-1.3c0-0.6,0.3-1.1,0.7-1.5c0.1-0.1,0.2-0.2,0.3-0.2   c9.8-8.3,19.7-16.6,29.5-24.9c0.5-0.4,1.1-0.7,1.7-0.7c0.7,0,1.3,0.4,1.8,1c4.3,5.1,8.5,10.1,12.8,15.2c1,1.2,2.1,2.5,3.1,3.7   c1,1.1,0.9,2.5-0.3,3.4c-9.9,8.4-19.8,16.7-29.7,25.1c-1,0.8-2,0.8-3,0.1C561,118.4,555.4,111.8,549.9,105.2z M551.8,104.8   c5.1,6.1,10.2,12.1,15.3,18.2c0-0.2,0-0.4,0-0.5c-0.1-3.8-0.2-7.6-0.3-11.4c0-1-0.1-2-0.1-3.1c0-0.6,0.3-0.9,0.8-0.9   c0.5,0,0.8,0.4,0.9,0.9c0,0.1,0,0.1,0,0.2c0.1,4.8,0.3,9.7,0.4,14.5c0,0.2,0,0.3,0,0.5c9.7-8.1,19.3-16.3,29-24.4   c-0.2,0-0.3-0.1-0.4-0.1c-1.4-0.3-2.8-0.6-4.2-0.8c-3.4-0.7-6.8-1.4-10.2-2.1c-0.3-0.1-0.6-0.2-0.8-0.4c-0.2-0.3-0.2-0.6,0-0.9   c0.3-0.4,0.6-0.4,1-0.3c4.2,0.9,8.4,1.7,12.6,2.5c0.6,0.1,1.3,0.2,1.9,0.4c-5.1-6.1-10.2-12.1-15.3-18.2c0,0.2-0.1,0.4-0.1,0.5   c-1.6,7-3.1,14-4.7,21.1c-0.4,2-1.8,3.2-3.8,3.3c-5.8,0.3-11.7,0.6-17.5,0.9C554.9,104.6,553.4,104.7,551.8,104.8z M552.2,103   c0.2,0,0.3,0,0.4,0c7.1-0.3,14.3-0.7,21.4-1c1.1-0.1,1.9-0.8,2.2-1.9c1.5-6.9,3.1-13.8,4.6-20.7c0-0.1,0-0.2,0.1-0.4   C571.2,87,561.7,95,552.2,103z"></path>		<path class="st0" d="M544,205.4c0.3-0.2,0.7-0.4,1-0.6c0.5-0.2,1-0.1,1.4,0.2c0.1,0,0.2,0.1,0.2,0.2c9.3,5.9,18.7,11.7,28,17.6   c0.5,0.3,0.9,0.7,1,1.2c0.2,0.6,0,1.2-0.3,1.7c-3,4.8-6,9.6-9,14.4c-0.7,1.2-1.5,2.3-2.2,3.5c-0.7,1.1-1.8,1.4-2.9,0.7   c-9.4-5.9-18.8-11.8-28.2-17.7c-0.9-0.6-1.2-1.4-0.9-2.5C536.2,217.9,540.1,211.7,544,205.4z M544.8,206.9   c-3.6,5.8-7.2,11.5-10.8,17.3c0.2-0.1,0.3-0.1,0.4-0.1c3.1-1.1,6.1-2.2,9.2-3.2c0.8-0.3,1.6-0.6,2.5-0.9c0.5-0.2,0.9,0,1,0.4   c0.1,0.4-0.1,0.8-0.5,1c0,0-0.1,0-0.1,0c-3.9,1.4-7.8,2.8-11.7,4.1c-0.1,0-0.2,0.1-0.4,0.2c9.2,5.7,18.3,11.5,27.5,17.2   c0-0.2,0-0.3,0-0.4c-0.1-1.2-0.3-2.4-0.4-3.6c-0.3-2.9-0.7-5.9-1-8.8c0-0.2,0-0.5,0.1-0.7c0.2-0.3,0.5-0.3,0.7-0.2   c0.4,0.1,0.5,0.4,0.5,0.8c0.4,3.7,0.8,7.3,1.2,11c0.1,0.5,0.1,1.1,0.2,1.7c3.6-5.8,7.2-11.5,10.8-17.3c-0.2,0-0.3,0-0.5,0   c-6.1,0.6-12.3,1.1-18.4,1.7c-1.7,0.2-3.1-0.7-3.7-2.3c-1.8-4.7-3.5-9.4-5.3-14.1C545.8,209.4,545.3,208.2,544.8,206.9z    M546.4,206.7c0.1,0.2,0.1,0.2,0.1,0.3c2.1,5.7,4.3,11.4,6.4,17.2c0.3,0.9,1.1,1.4,2.1,1.3c6-0.6,12.1-1.1,18.1-1.7   c0.1,0,0.2,0,0.4-0.1C564.4,218.1,555.4,212.4,546.4,206.7z"></path>		<path class="st0" d="M589.9,149c0.2-0.3,0.4-0.7,0.6-1c0.3-0.4,0.8-0.5,1.3-0.5c0.1,0,0.2,0,0.3,0c11,0.7,22,1.3,33,2   c0.6,0,1.1,0.2,1.5,0.6c0.4,0.5,0.6,1,0.5,1.7c-0.3,5.7-0.7,11.3-1,17c-0.1,1.4-0.2,2.7-0.2,4.1c-0.1,1.3-0.9,2-2.2,2   c-11.1-0.7-22.2-1.3-33.2-2c-1.1-0.1-1.7-0.7-1.9-1.7C589.1,163.7,589.5,156.4,589.9,149z M591.3,149.9   c-0.4,6.8-0.8,13.5-1.2,20.3c0.1-0.1,0.2-0.2,0.3-0.3c2.2-2.4,4.3-4.8,6.5-7.2c0.6-0.6,1.2-1.3,1.8-1.9c0.3-0.4,0.8-0.4,1.1-0.1   c0.3,0.3,0.3,0.7,0,1.1c0,0-0.1,0.1-0.1,0.1c-2.8,3.1-5.5,6.2-8.3,9.3c-0.1,0.1-0.2,0.2-0.3,0.3c10.8,0.6,21.6,1.3,32.4,1.9   c-0.1-0.1-0.1-0.2-0.2-0.3c-0.7-1-1.4-2-2.1-3c-1.7-2.4-3.4-4.8-5.1-7.3c-0.1-0.2-0.2-0.5-0.2-0.7c0-0.3,0.2-0.5,0.5-0.6   c0.4-0.1,0.6,0.1,0.8,0.4c2.1,3,4.2,6,6.3,9c0.3,0.4,0.6,0.9,1,1.4c0.4-6.8,0.8-13.6,1.2-20.3c-0.2,0.1-0.3,0.2-0.4,0.3   c-5.1,3.4-10.2,6.9-15.3,10.3c-1.4,1-3,0.9-4.3-0.2c-3.8-3.3-7.6-6.5-11.4-9.8C593.4,151.6,592.4,150.8,591.3,149.9z M592.6,149   c0.1,0.1,0.2,0.2,0.2,0.2c4.6,4,9.3,8,13.9,12c0.7,0.6,1.6,0.7,2.5,0.1c5-3.4,10-6.8,15.1-10.2c0.1-0.1,0.2-0.1,0.3-0.2   C613.9,150.3,603.3,149.7,592.6,149z"></path>		<path class="st0" d="M628.2,93.1c0.3-0.3,0.6-0.7,0.9-0.9c0.5-0.3,1-0.4,1.6-0.2c0.1,0,0.2,0.1,0.3,0.1c12,3.4,24,6.8,35.9,10.2   c0.6,0.2,1.2,0.5,1.5,1c0.4,0.6,0.4,1.3,0.2,2c-1.7,6.2-3.5,12.3-5.2,18.5c-0.4,1.5-0.8,3-1.3,4.5c-0.4,1.4-1.5,2-2.9,1.7   c-12.1-3.4-24.1-6.8-36.2-10.2c-1.2-0.3-1.7-1.2-1.7-2.4C623.6,109.2,625.9,101.1,628.2,93.1z M629.5,94.4   c-2.1,7.4-4.2,14.7-6.3,22.2c0.2-0.1,0.3-0.2,0.4-0.3c3-2.1,6-4.3,8.9-6.4c0.8-0.6,1.6-1.2,2.4-1.7c0.4-0.3,0.9-0.2,1.2,0.1   c0.3,0.4,0.2,0.9-0.3,1.2c0,0-0.1,0.1-0.1,0.1c-3.8,2.7-7.6,5.5-11.4,8.2c-0.1,0.1-0.2,0.2-0.4,0.3c11.8,3.3,23.5,6.6,35.2,10   c-0.1-0.2-0.1-0.3-0.1-0.4c-0.5-1.3-1.1-2.5-1.6-3.8c-1.3-3.1-2.6-6.2-3.9-9.3c-0.1-0.2-0.1-0.6-0.1-0.8c0.1-0.3,0.4-0.5,0.7-0.5   c0.4,0,0.7,0.3,0.8,0.7c1.6,3.8,3.2,7.7,4.8,11.5c0.2,0.6,0.5,1.1,0.7,1.8c2.1-7.4,4.2-14.8,6.3-22.1c-0.2,0.1-0.3,0.1-0.5,0.2   c-6.5,2.6-12.9,5.1-19.4,7.7c-1.8,0.7-3.5,0.2-4.7-1.3c-3.4-4.5-6.8-9-10.2-13.6C631.3,96.8,630.4,95.7,629.5,94.4z M631.1,93.8   c0.1,0.1,0.1,0.2,0.2,0.3c4.1,5.5,8.3,11,12.4,16.6c0.7,0.9,1.7,1.1,2.7,0.7c6.4-2.5,12.7-5,19.1-7.5c0.1,0,0.2-0.1,0.4-0.2   C654.3,100.4,642.7,97.1,631.1,93.8z"></path>		<path class="st0" d="M638.3,191.4c0.4-0.2,0.8-0.4,1.2-0.4c0.6-0.1,1.1,0.1,1.5,0.5c0.1,0.1,0.2,0.1,0.3,0.2   c9.4,8.3,18.8,16.6,28.1,24.9c0.5,0.4,0.8,0.9,0.9,1.6c0.1,0.7-0.2,1.3-0.7,1.9c-4.3,4.8-8.6,9.6-12.8,14.5   c-1,1.2-2.1,2.3-3.1,3.5c-1,1.1-2.3,1.2-3.3,0.2c-9.4-8.4-18.9-16.7-28.3-25.1c-0.9-0.8-1-1.8-0.5-2.9   C627.1,203.9,632.7,197.7,638.3,191.4z M638.9,193.2c-5.1,5.8-10.2,11.5-15.4,17.3c0.2,0,0.4,0,0.5-0.1c3.6-0.6,7.3-1.3,10.9-1.9   c1-0.2,2-0.3,2.9-0.5c0.5-0.1,1,0.2,1,0.7c0.1,0.5-0.2,0.9-0.8,1c-0.1,0-0.1,0-0.2,0c-4.6,0.8-9.3,1.6-13.9,2.4   c-0.1,0-0.3,0.1-0.5,0.1c9.2,8.2,18.4,16.3,27.6,24.4c0-0.2,0-0.3,0-0.4c0.1-1.4,0.1-2.8,0.2-4.1c0.2-3.4,0.4-6.7,0.5-10.1   c0-0.3,0.1-0.6,0.3-0.8c0.2-0.3,0.6-0.3,0.9-0.1c0.4,0.2,0.5,0.5,0.4,0.9c-0.2,4.2-0.4,8.3-0.7,12.5c0,0.6-0.1,1.2-0.1,1.9   c5.1-5.8,10.2-11.5,15.4-17.3c-0.2,0-0.4,0-0.5,0c-7-0.5-14-1-20.9-1.5c-2-0.1-3.3-1.3-3.7-3.2c-1.1-5.6-2.2-11.2-3.3-16.7   C639.5,196.1,639.2,194.7,638.9,193.2z M640.6,193.3c0,0.2,0,0.3,0.1,0.3c1.3,6.8,2.7,13.6,4,20.4c0.2,1.1,1,1.8,2.2,1.8   c6.9,0.5,13.7,1,20.6,1.5c0.1,0,0.2,0,0.4,0C658.8,209.4,649.7,201.4,640.6,193.3z"></path>	</g>	<g>		<path class="st0" d="M103.8,125c-1,0.7-2.1,0.7-3-0.1c-9.9-8.4-19.8-16.7-29.7-25.1c-1.1-0.9-1.2-2.3-0.3-3.4   c1-1.2,2.1-2.5,3.1-3.7c4.3-5.1,8.5-10.1,12.8-15.2c0.5-0.6,1.1-0.9,1.8-1c0.7,0,1.2,0.3,1.7,0.7c9.8,8.3,19.7,16.6,29.5,24.9   c0.1,0.1,0.2,0.1,0.3,0.2c0.4,0.4,0.7,0.9,0.7,1.5c0,0.4-0.2,0.9-0.3,1.3C114.9,111.8,109.4,118.4,103.8,125z M114,104.6   c-5.8-0.3-11.7-0.6-17.5-0.9c-2-0.1-3.4-1.3-3.8-3.3c-1.6-7-3.1-14-4.7-21.1c0-0.2-0.1-0.3-0.1-0.5C82.7,84.9,77.6,91,72.5,97.1   c0.7-0.1,1.3-0.3,1.9-0.4c4.2-0.8,8.4-1.7,12.6-2.5c0.4-0.1,0.8,0,1,0.3c0.2,0.3,0.2,0.7,0,0.9c-0.2,0.2-0.5,0.4-0.8,0.4   c-3.4,0.7-6.8,1.4-10.2,2.1c-1.4,0.3-2.8,0.6-4.2,0.8c-0.1,0-0.2,0.1-0.4,0.1c9.7,8.1,19.3,16.3,29,24.4c0-0.2,0-0.3,0-0.5   c0.1-4.8,0.3-9.7,0.4-14.5c0-0.1,0-0.1,0-0.2c0-0.6,0.4-0.9,0.9-0.9c0.5,0,0.8,0.4,0.8,0.9c0,1-0.1,2-0.1,3.1   c-0.1,3.8-0.2,7.6-0.3,11.4c0,0.2,0,0.3,0,0.5c5.1-6.1,10.2-12.1,15.3-18.2C117,104.7,115.5,104.6,114,104.6z M89.6,78.9   c0,0.2,0,0.3,0.1,0.4c1.5,6.9,3.1,13.8,4.6,20.7c0.3,1.2,1.1,1.9,2.2,1.9c7.1,0.3,14.3,0.7,21.4,1c0.1,0,0.2,0,0.4,0   C108.6,95,99.1,87,89.6,78.9z"></path>		<path class="st0" d="M138.1,224.2c0.3,1,0,1.9-0.9,2.5c-9.4,5.9-18.8,11.8-28.2,17.7c-1.1,0.7-2.2,0.4-2.9-0.7   c-0.7-1.2-1.5-2.3-2.2-3.5c-3-4.8-6-9.6-9-14.4c-0.3-0.5-0.5-1.1-0.3-1.7c0.2-0.6,0.5-0.9,1-1.2c9.3-5.9,18.7-11.7,28-17.6   c0.1-0.1,0.2-0.1,0.2-0.2c0.4-0.2,0.9-0.4,1.4-0.2c0.4,0.1,0.7,0.4,1,0.6C130.3,211.7,134.2,217.9,138.1,224.2z M124.1,210.6   c-1.8,4.7-3.5,9.4-5.3,14.1c-0.6,1.6-1.9,2.4-3.7,2.3c-6.1-0.6-12.3-1.1-18.4-1.7c-0.1,0-0.3,0-0.5,0c3.6,5.8,7.2,11.5,10.8,17.3   c0.1-0.6,0.1-1.1,0.2-1.7c0.4-3.7,0.8-7.3,1.2-11c0-0.4,0.2-0.6,0.5-0.8c0.3-0.1,0.6,0,0.7,0.2c0.1,0.2,0.2,0.5,0.1,0.7   c-0.3,2.9-0.7,5.9-1,8.8c-0.1,1.2-0.3,2.4-0.4,3.6c0,0.1,0,0.2,0,0.4c9.2-5.7,18.3-11.5,27.5-17.2c-0.2-0.1-0.3-0.1-0.4-0.2   c-3.9-1.4-7.8-2.8-11.7-4.1c0,0-0.1,0-0.1,0c-0.5-0.2-0.7-0.6-0.5-1c0.1-0.4,0.5-0.6,1-0.4c0.8,0.3,1.6,0.6,2.5,0.9   c3.1,1.1,6.1,2.2,9.2,3.2c0.1,0,0.2,0.1,0.4,0.1c-3.6-5.8-7.2-11.5-10.8-17.3C125,208.2,124.6,209.4,124.1,210.6z M96.9,223.8   c0.2,0,0.3,0,0.4,0.1c6,0.6,12.1,1.1,18.1,1.7c1,0.1,1.8-0.4,2.1-1.3c2.1-5.7,4.3-11.4,6.4-17.2c0-0.1,0-0.1,0.1-0.3   C114.9,212.4,105.9,218.1,96.9,223.8z"></path>		<path class="st0" d="M81.7,171.1c-0.2,1-0.9,1.7-1.9,1.7c-11.1,0.7-22.2,1.3-33.2,2c-1.2,0.1-2.1-0.7-2.2-2   c-0.1-1.4-0.2-2.7-0.2-4.1c-0.3-5.7-0.7-11.3-1-17c0-0.6,0.1-1.2,0.5-1.7c0.4-0.4,0.9-0.6,1.5-0.6c11-0.6,22-1.3,33-2   c0.1,0,0.2,0,0.3,0c0.5,0,1,0.1,1.3,0.5c0.3,0.3,0.4,0.7,0.6,1C80.9,156.4,81.3,163.7,81.7,171.1z M76,152.4   c-3.8,3.3-7.6,6.5-11.4,9.8c-1.3,1.1-2.9,1.2-4.3,0.2c-5.1-3.4-10.2-6.9-15.3-10.3c-0.1-0.1-0.2-0.1-0.4-0.3   c0.4,6.8,0.8,13.5,1.2,20.3c0.3-0.5,0.7-0.9,1-1.4c2.1-3,4.2-6,6.3-9c0.2-0.3,0.5-0.5,0.8-0.4c0.3,0.1,0.5,0.3,0.5,0.6   c0,0.2-0.1,0.5-0.2,0.7c-1.7,2.4-3.4,4.9-5.1,7.3c-0.7,1-1.4,2-2.1,3c-0.1,0.1-0.1,0.2-0.2,0.3c10.8-0.6,21.6-1.3,32.4-1.9   c-0.1-0.1-0.2-0.2-0.3-0.3c-2.8-3.1-5.5-6.2-8.3-9.3c0,0-0.1-0.1-0.1-0.1c-0.3-0.4-0.3-0.8,0-1.1c0.3-0.3,0.7-0.3,1.1,0.1   c0.6,0.6,1.2,1.3,1.8,1.9c2.2,2.4,4.3,4.8,6.5,7.2c0.1,0.1,0.2,0.2,0.3,0.3c-0.4-6.8-0.8-13.5-1.2-20.3   C78,150.8,77,151.6,76,152.4z M45.8,150.9c0.1,0.1,0.2,0.2,0.3,0.2c5,3.4,10,6.8,15.1,10.2c0.8,0.6,1.8,0.5,2.5-0.1   c4.6-4,9.3-8,13.9-12c0.1,0,0.1-0.1,0.2-0.2C67.1,149.7,56.5,150.3,45.8,150.9z"></path>		<path class="st0" d="M49,117.2c0,1.2-0.5,2-1.7,2.4c-12.1,3.4-24.1,6.8-36.2,10.2c-1.4,0.4-2.5-0.3-2.9-1.7   c-0.4-1.5-0.8-3-1.3-4.5c-1.7-6.2-3.5-12.3-5.2-18.5c-0.2-0.7-0.2-1.4,0.2-2c0.3-0.6,0.9-0.8,1.5-1c12-3.4,24-6.8,35.9-10.2   c0.1,0,0.2-0.1,0.3-0.1c0.6-0.1,1.1-0.1,1.6,0.2c0.4,0.3,0.6,0.6,0.9,0.9C44.5,101.1,46.7,109.2,49,117.2z M38.2,98   c-3.4,4.5-6.8,9-10.2,13.6c-1.2,1.6-2.9,2-4.7,1.3c-6.5-2.6-12.9-5.1-19.4-7.7c-0.1-0.1-0.3-0.1-0.5-0.2   c2.1,7.4,4.2,14.7,6.3,22.1c0.3-0.6,0.5-1.2,0.7-1.8c1.6-3.8,3.2-7.7,4.8-11.5c0.2-0.4,0.4-0.6,0.8-0.7c0.3,0,0.7,0.2,0.7,0.5   c0.1,0.3,0,0.6-0.1,0.8c-1.3,3.1-2.6,6.2-3.9,9.3c-0.5,1.3-1.1,2.5-1.6,3.8c0,0.1-0.1,0.2-0.1,0.4c11.8-3.3,23.5-6.6,35.2-10   c-0.1-0.1-0.3-0.2-0.4-0.3c-3.8-2.7-7.6-5.5-11.4-8.2c0,0-0.1-0.1-0.1-0.1c-0.4-0.3-0.5-0.8-0.3-1.2c0.3-0.4,0.8-0.5,1.2-0.1   c0.8,0.6,1.6,1.1,2.4,1.7c3,2.1,6,4.3,8.9,6.4c0.1,0.1,0.2,0.2,0.4,0.3c-2.1-7.4-4.2-14.7-6.3-22.2C39.9,95.7,39.1,96.8,38.2,98z    M4.5,103.6c0.2,0.1,0.3,0.1,0.4,0.2c6.4,2.5,12.7,5,19.1,7.5c1.1,0.4,2.1,0.2,2.7-0.7c4.1-5.5,8.3-11,12.4-16.6   c0-0.1,0.1-0.1,0.2-0.3C27.6,97.1,16.1,100.4,4.5,103.6z"></path>		<path class="st0" d="M48.8,210.2c0.5,1.1,0.4,2.1-0.5,2.9c-9.4,8.4-18.9,16.7-28.3,25.1c-1.1,0.9-2.4,0.8-3.3-0.2   c-1-1.2-2.1-2.3-3.1-3.5C9.2,229.6,5,224.8,0.7,220c-0.5-0.5-0.8-1.1-0.7-1.9c0.1-0.7,0.4-1.2,0.9-1.6   c9.4-8.3,18.8-16.6,28.1-24.9c0.1-0.1,0.2-0.1,0.3-0.2c0.5-0.4,1-0.6,1.5-0.5c0.4,0.1,0.8,0.3,1.2,0.4   C37.7,197.7,43.2,203.9,48.8,210.2z M30.6,197.6c-1.1,5.6-2.2,11.2-3.3,16.7c-0.4,1.9-1.7,3.1-3.7,3.2c-7,0.5-14,1-20.9,1.5   c-0.2,0-0.3,0-0.5,0c5.1,5.8,10.2,11.5,15.4,17.3c0-0.7-0.1-1.3-0.1-1.9c-0.2-4.2-0.4-8.3-0.7-12.5c0-0.4,0.1-0.8,0.4-0.9   c0.3-0.2,0.7-0.1,0.9,0.1c0.2,0.2,0.3,0.5,0.3,0.8c0.2,3.4,0.4,6.7,0.5,10.1c0.1,1.4,0.1,2.8,0.2,4.1c0,0.1,0,0.2,0,0.4   c9.2-8.2,18.4-16.3,27.6-24.4c-0.2,0-0.3-0.1-0.5-0.1c-4.6-0.8-9.3-1.6-13.9-2.4c-0.1,0-0.1,0-0.2,0c-0.5-0.1-0.9-0.5-0.8-1   c0.1-0.5,0.5-0.7,1-0.7c1,0.2,2,0.3,2.9,0.5c3.6,0.6,7.3,1.3,10.9,1.9c0.1,0,0.3,0,0.5,0.1c-5.1-5.8-10.2-11.5-15.4-17.3   C31.2,194.7,30.9,196.1,30.6,197.6z M2.5,217.4c0.2,0,0.3,0,0.4,0c6.9-0.5,13.7-1,20.6-1.5c1.2-0.1,1.9-0.8,2.2-1.8   c1.3-6.8,2.7-13.6,4-20.4c0-0.1,0-0.2,0.1-0.3C20.6,201.4,11.6,209.4,2.5,217.4z"></path>	</g>	<g>		<g>			<g>				<path class="st1" d="M159.7,57c0.8-1.6,1.5-3,2.2-4.4c4.3-8.7,8.7-17.4,12.9-26.1c0.5-0.9,1-1,1.9-1c7.6,0,15,0,22.6,0     c1.2,0,1.7-0.3,2.4-1.3c4.1-6.2,9-11.9,15.3-16c9.6-6.2,20.1-9,31.4-7.9c3.3,0.3,6.4,0.8,9.7,1.4c0.6,0.1,1.3,0.8,1.4,1.3     c4.7,20.3-0.7,39.9-17.8,53.1c-1.5,1.2-3.1,2.3-4.8,3.4c-0.9,0.6-1.3,1.2-1.3,2.3c0,7.6,0,15,0,22.6c0,0.8,0,1.4-0.9,1.9     c-9.7,4.8-19.4,9.7-29,14.6c-0.5,0.2-0.8,0.3-1.5,0.7c0-0.7,0-1.3,0-1.9c0-7.7,0-15.5,0-23.2c0-11.7-7.8-19.4-19.5-19.4     C176.6,57,168.3,57,159.7,57z M255,16.2c-0.2-2.6-0.5-5-0.7-7.6c-0.1-1-0.5-1.5-1.6-1.6c-7.9-1-15.6-0.7-23.2,2     c-11.5,4.1-19.2,12.2-25,22.7c-3.5,6.4-5.7,13.4-7.6,20.5c-0.2,0.8-0.1,1.3,0.7,1.7c4.2,2.3,7.5,5.6,9.7,9.9     c0.5,0.8,0.8,1,1.7,0.7c6.6-1.9,13.1-4,19.2-7.1C245.1,48.7,255,35.7,255,16.2z M210.4,91.3c0.5-0.1,0.7-0.1,0.8-0.2     c5.8-2.9,11.7-5.8,17.5-8.7c0.5-0.2,0.8-1,0.8-1.6c0.1-5.2,0-10.4,0-15.6c0-0.3-0.1-0.8-0.1-0.9c-6.4,2.3-12.8,4.5-19,6.8     C210.4,77.6,210.4,84.4,210.4,91.3z M197.1,31.8c-0.2,0-0.7-0.1-1.2-0.1c-5.1,0-10.1,0-15.3,0c-1,0-1.5,0.3-2,1.3     c-2.7,5.5-5.5,11-8.2,16.3c-0.2,0.3-0.3,0.8-0.6,1.5c7.1,0,13.9,0,20.5,0C192.6,44.5,194.9,38.2,197.1,31.8z"></path>				<path class="st1" d="M159.9,101.2c0.2-4.4,0.3-8.6,0.8-12.8c0.6-4.8,1.4-9.6,3.6-14c2.7-5.2,6.4-9,12.4-10.5     c7.8-2,16.2,2.1,19.6,9.6c3.5,7.5,1.2,16.3-5.4,21.1c-3.7,2.7-8,4.3-12.6,5.1C172.4,101,166.5,101.5,159.9,101.2z M166.3,95.1     c6.5-0.2,12.9-0.8,18.7-4.1c1.4-0.8,2.8-1.6,3.8-2.7c3-3.4,3.6-7.5,2-11.7c-1.6-4.2-4.9-6.5-9.4-6.9c-5.5-0.3-9.7,2.7-12,8.4     C167.3,83.5,166.5,89,166.3,95.1z"></path>				<path class="st1" d="M243.7,28.7c0,5.9-5.1,11-11.1,11c-5.9,0-11-5.2-11-11.1c0.1-5.9,5.2-11,11.1-11     C238.7,17.6,243.7,22.7,243.7,28.7z M237.5,28.7c0-2.7-2.1-4.9-4.8-4.8c-2.6,0-4.7,2.1-4.8,4.7c0,2.6,2.2,4.9,4.8,4.8     C235.3,33.3,237.4,31.2,237.5,28.7z"></path>			</g>		</g>		<g>			<path class="st1" d="M209.5,209.1c-0.3,0-0.5-0.2-0.5-0.5c0-0.3,0.2-0.5,0.5-0.6c1.8-0.1,3.5-0.3,5.3-0.5c0.3,0,0.6,0.2,0.6,0.5    c0,0.3-0.2,0.6-0.5,0.6C213.1,208.8,211.3,209,209.5,209.1C209.5,209.1,209.5,209.1,209.5,209.1z M202,209.1    C202,209.1,202,209.1,202,209.1c-1.8-0.1-3.6-0.3-5.4-0.6c-0.3,0-0.5-0.3-0.4-0.6c0-0.3,0.3-0.5,0.6-0.4c1.7,0.3,3.5,0.4,5.3,0.6    c0.3,0,0.5,0.3,0.5,0.6C202.5,208.9,202.3,209.1,202,209.1z M222.2,207.1c-0.2,0-0.5-0.2-0.5-0.4c-0.1-0.3,0.1-0.6,0.4-0.7    c1.7-0.4,3.4-1,5.1-1.6c0.3-0.1,0.6,0,0.7,0.3c0.1,0.3,0,0.6-0.3,0.7c-1.7,0.6-3.4,1.1-5.2,1.6    C222.2,207.1,222.2,207.1,222.2,207.1z M189.3,207c0,0-0.1,0-0.1,0c-1.7-0.5-3.5-1-5.1-1.6c-0.3-0.1-0.4-0.4-0.3-0.7    c0.1-0.3,0.4-0.4,0.7-0.3c1.7,0.6,3.4,1.2,5.1,1.6c0.3,0.1,0.5,0.4,0.4,0.7C189.8,206.8,189.6,207,189.3,207z M234.2,202.6    c-0.2,0-0.4-0.1-0.5-0.3c-0.1-0.3,0-0.6,0.2-0.7c1.6-0.8,3.1-1.6,4.7-2.6c0.3-0.2,0.6-0.1,0.7,0.2c0.2,0.3,0.1,0.6-0.2,0.7    c-1.5,0.9-3.1,1.8-4.7,2.6C234.3,202.6,234.3,202.6,234.2,202.6z M177.3,202.4c-0.1,0-0.2,0-0.2-0.1c-1.6-0.8-3.2-1.7-4.7-2.6    c-0.3-0.2-0.3-0.5-0.2-0.7c0.2-0.3,0.5-0.3,0.7-0.2c1.5,0.9,3.1,1.8,4.6,2.6c0.3,0.1,0.4,0.5,0.2,0.7    C177.7,202.3,177.5,202.4,177.3,202.4z M245,195.8c-0.2,0-0.3-0.1-0.4-0.2c-0.2-0.2-0.1-0.6,0.1-0.7c1.4-1.1,2.7-2.2,4-3.4    c0.2-0.2,0.6-0.2,0.8,0c0.2,0.2,0.2,0.6,0,0.8c-1.3,1.2-2.7,2.4-4.1,3.5C245.3,195.7,245.1,195.8,245,195.8z M166.5,195.4    c-0.1,0-0.2,0-0.3-0.1c-1.4-1.1-2.8-2.3-4.1-3.5c-0.2-0.2-0.2-0.5,0-0.8c0.2-0.2,0.5-0.2,0.8,0c1.3,1.2,2.6,2.4,4,3.5    c0.2,0.2,0.3,0.5,0.1,0.7C166.9,195.4,166.7,195.4,166.5,195.4z M254.3,186.9c-0.1,0-0.2,0-0.3-0.1c-0.2-0.2-0.3-0.5-0.1-0.8    c1.1-1.3,2.2-2.8,3.3-4.2c0.2-0.2,0.5-0.3,0.7-0.1s0.3,0.5,0.1,0.7c-1,1.5-2.2,2.9-3.3,4.3C254.6,186.8,254.4,186.9,254.3,186.9z     M157.3,186.5c-0.2,0-0.3-0.1-0.4-0.2c-1.2-1.4-2.3-2.8-3.3-4.3c-0.2-0.2-0.1-0.6,0.1-0.7c0.2-0.2,0.6-0.1,0.7,0.1    c1,1.4,2.1,2.9,3.2,4.2c0.2,0.2,0.2,0.6-0.1,0.8C157.6,186.5,157.5,186.5,157.3,186.5z M261.6,176.3c-0.1,0-0.2,0-0.3-0.1    c-0.3-0.1-0.4-0.5-0.2-0.7c0.9-1.5,1.6-3.1,2.4-4.8c0.1-0.3,0.4-0.4,0.7-0.3c0.3,0.1,0.4,0.4,0.3,0.7c-0.7,1.6-1.5,3.3-2.4,4.8    C261.9,176.2,261.8,176.3,261.6,176.3z M150.1,175.9c-0.2,0-0.4-0.1-0.5-0.3c-0.9-1.6-1.6-3.2-2.4-4.9c-0.1-0.3,0-0.6,0.3-0.7    c0.3-0.1,0.6,0,0.7,0.3c0.7,1.6,1.5,3.2,2.3,4.8c0.1,0.3,0,0.6-0.2,0.7C150.3,175.9,150.2,175.9,150.1,175.9z M266.6,164.5    c-0.1,0-0.1,0-0.2,0c-0.3-0.1-0.4-0.4-0.4-0.7c0.5-1.7,1-3.4,1.4-5.1c0.1-0.3,0.3-0.5,0.6-0.4c0.3,0.1,0.5,0.3,0.4,0.6    c-0.4,1.8-0.8,3.5-1.4,5.2C267,164.4,266.8,164.5,266.6,164.5z M145.2,164c-0.2,0-0.4-0.1-0.5-0.4c-0.5-1.7-1-3.5-1.3-5.2    c-0.1-0.3,0.1-0.6,0.4-0.6c0.3-0.1,0.6,0.1,0.6,0.4c0.4,1.7,0.8,3.5,1.3,5.1c0.1,0.3-0.1,0.6-0.4,0.7    C145.3,164,145.3,164,145.2,164z M269.1,151.9C269.1,151.9,269.1,151.9,269.1,151.9c-0.3,0-0.6-0.3-0.5-0.6    c0.2-1.8,0.3-3.5,0.3-5.3c0-0.3,0.2-0.5,0.5-0.5c0.3,0,0.5,0.2,0.5,0.5c0,1.8-0.1,3.6-0.3,5.4    C269.6,151.7,269.4,151.9,269.1,151.9z M142.8,151.4c-0.3,0-0.5-0.2-0.5-0.5c-0.2-1.8-0.2-3.6-0.3-5.4c0-0.3,0.2-0.5,0.5-0.5    c0,0,0,0,0,0c0.3,0,0.5,0.2,0.5,0.5c0,1.8,0.1,3.5,0.3,5.3C143.4,151.1,143.2,151.4,142.8,151.4    C142.8,151.4,142.8,151.4,142.8,151.4z M269.1,139.1c-0.3,0-0.5-0.2-0.5-0.5c-0.2-1.7-0.5-3.5-0.8-5.3l0-0.1    c-0.1-0.3,0.1-0.6,0.4-0.6c0.3-0.1,0.6,0.1,0.6,0.4l0,0.1c0.3,1.8,0.6,3.6,0.8,5.3C269.6,138.8,269.4,139.1,269.1,139.1    C269.1,139.1,269.1,139.1,269.1,139.1z M143,138.6C142.9,138.6,142.9,138.6,143,138.6c-0.4,0-0.6-0.3-0.5-0.6    c0.2-1.8,0.5-3.6,0.8-5.3c0.1-0.3,0.3-0.5,0.6-0.4c0.3,0.1,0.5,0.3,0.4,0.6c-0.3,1.7-0.6,3.5-0.8,5.2    C143.5,138.4,143.2,138.6,143,138.6z M266.4,126.5c-0.2,0-0.4-0.1-0.5-0.4c-0.5-1.7-1.1-3.4-1.8-5c-0.1-0.3,0-0.6,0.3-0.7    c0.3-0.1,0.6,0,0.7,0.3c0.7,1.7,1.3,3.4,1.9,5.1c0.1,0.3-0.1,0.6-0.3,0.7C266.5,126.5,266.5,126.5,266.4,126.5z M145.7,126    c-0.1,0-0.1,0-0.2,0c-0.3-0.1-0.4-0.4-0.3-0.7c0.6-1.7,1.2-3.4,1.9-5.1c0.1-0.3,0.4-0.4,0.7-0.3c0.3,0.1,0.4,0.4,0.3,0.7    c-0.7,1.6-1.3,3.3-1.9,5C146.1,125.9,145.9,126,145.7,126z M261.3,114.7c-0.2,0-0.4-0.1-0.5-0.3c-0.9-1.5-1.8-3.1-2.8-4.5    c-0.2-0.2-0.1-0.6,0.1-0.7c0.2-0.2,0.6-0.1,0.7,0.1c1,1.5,2,3,2.8,4.6c0.1,0.3,0.1,0.6-0.2,0.7    C261.5,114.7,261.4,114.7,261.3,114.7z M150.9,114.3c-0.1,0-0.2,0-0.3-0.1c-0.3-0.1-0.3-0.5-0.2-0.7c0.9-1.6,1.9-3.1,2.9-4.6    c0.2-0.2,0.5-0.3,0.7-0.1c0.2,0.2,0.3,0.5,0.1,0.7c-1,1.5-2,3-2.8,4.5C151.3,114.2,151.1,114.3,150.9,114.3z"></path>		</g>		<g>			<path class="st1" d="M409.5,236.2c-0.3,0-0.6,0-0.9,0c-0.3,0-0.5-0.2-0.5-0.5c0-0.3,0.2-0.5,0.5-0.5c0,0,0,0,0,0    c1.7,0,3.5,0,5.3-0.1c0.3,0,0.5,0.2,0.6,0.5c0,0.3-0.2,0.5-0.5,0.6C412.4,236.2,410.9,236.2,409.5,236.2z M401.2,235.9    C401.1,235.9,401.1,235.9,401.2,235.9c-1.8-0.1-3.6-0.3-5.3-0.5c-0.3,0-0.5-0.3-0.5-0.6c0-0.3,0.3-0.5,0.6-0.5    c1.7,0.2,3.5,0.4,5.2,0.5c0.3,0,0.5,0.3,0.5,0.6C401.7,235.7,401.4,235.9,401.2,235.9z M421.2,235.6c-0.3,0-0.5-0.2-0.5-0.5    c0-0.3,0.2-0.6,0.5-0.6c1.7-0.2,3.5-0.4,5.2-0.7c0.3,0,0.6,0.2,0.6,0.4c0,0.3-0.2,0.6-0.4,0.6C424.8,235.2,423,235.4,421.2,235.6    C421.2,235.6,421.2,235.6,421.2,235.6z M388.6,234.3c0,0-0.1,0-0.1,0c-1.7-0.3-3.5-0.7-5.2-1.1c-0.3-0.1-0.5-0.4-0.4-0.6    c0.1-0.3,0.4-0.5,0.6-0.4c1.7,0.4,3.4,0.8,5.1,1.1c0.3,0.1,0.5,0.3,0.4,0.6C389.1,234.1,388.8,234.3,388.6,234.3z M433.7,233.6    c-0.2,0-0.5-0.2-0.5-0.4c-0.1-0.3,0.1-0.6,0.4-0.6c1.7-0.4,3.4-0.8,5.1-1.3c0.3-0.1,0.6,0.1,0.7,0.4c0.1,0.3-0.1,0.6-0.4,0.7    c-1.7,0.5-3.4,0.9-5.2,1.3C433.8,233.6,433.8,233.6,433.7,233.6z M376.3,231.2c-0.1,0-0.1,0-0.2,0c-1.7-0.5-3.4-1.1-5-1.7    c-0.3-0.1-0.4-0.4-0.3-0.7c0.1-0.3,0.4-0.4,0.7-0.3c1.6,0.6,3.3,1.2,5,1.7c0.3,0.1,0.4,0.4,0.3,0.7    C376.7,231,376.5,231.2,376.3,231.2z M445.9,230.2c-0.2,0-0.4-0.1-0.5-0.4c-0.1-0.3,0.1-0.6,0.3-0.7c1.7-0.6,3.3-1.2,4.9-1.8    c0.3-0.1,0.6,0,0.7,0.3c0.1,0.3,0,0.6-0.3,0.7c-1.6,0.7-3.3,1.3-5,1.9C446,230.1,446,230.2,445.9,230.2z M364.4,226.7    c-0.1,0-0.1,0-0.2,0c-1.6-0.7-3.2-1.5-4.8-2.3c-0.3-0.1-0.4-0.5-0.2-0.7c0.1-0.3,0.5-0.4,0.7-0.2c1.6,0.8,3.2,1.5,4.8,2.3    c0.3,0.1,0.4,0.4,0.3,0.7C364.8,226.6,364.6,226.7,364.4,226.7z M457.6,225.3c-0.2,0-0.4-0.1-0.5-0.3c-0.1-0.3,0-0.6,0.2-0.7    c1.6-0.8,3.1-1.6,4.7-2.4c0.3-0.1,0.6,0,0.7,0.2c0.1,0.3,0,0.6-0.2,0.7c-1.5,0.8-3.1,1.6-4.7,2.4    C457.8,225.3,457.7,225.3,457.6,225.3z M353.1,220.9c-0.1,0-0.2,0-0.3-0.1c-1.5-0.9-3-1.8-4.5-2.8c-0.2-0.2-0.3-0.5-0.2-0.7    c0.2-0.2,0.5-0.3,0.7-0.2c1.5,1,3,1.9,4.5,2.8c0.3,0.1,0.3,0.5,0.2,0.7C353.5,220.8,353.3,220.9,353.1,220.9z M468.7,219.2    c-0.2,0-0.3-0.1-0.5-0.2c-0.2-0.2-0.1-0.6,0.2-0.7c1.5-0.9,2.9-1.9,4.4-2.9c0.2-0.2,0.6-0.1,0.7,0.1c0.2,0.2,0.1,0.6-0.1,0.7    c-1.4,1-2.9,2-4.4,2.9C468.9,219.2,468.8,219.2,468.7,219.2z M342.6,213.8c-0.1,0-0.2,0-0.3-0.1c-1.4-1.1-2.8-2.2-4.2-3.3    c-0.2-0.2-0.3-0.5-0.1-0.8c0.2-0.2,0.5-0.3,0.8-0.1c1.3,1.1,2.7,2.2,4.1,3.3c0.2,0.2,0.3,0.5,0.1,0.7    C342.9,213.7,342.8,213.8,342.6,213.8z M479,211.9c-0.2,0-0.3-0.1-0.4-0.2c-0.2-0.2-0.1-0.6,0.1-0.7c1.4-1.1,2.7-2.2,4-3.4    c0.2-0.2,0.6-0.2,0.8,0c0.2,0.2,0.2,0.6,0,0.8c-1.3,1.2-2.7,2.3-4.1,3.4C479.3,211.8,479.1,211.9,479,211.9z M333,205.6    c-0.1,0-0.3,0-0.4-0.1c-1.3-1.2-2.5-2.5-3.8-3.8c-0.2-0.2-0.2-0.6,0-0.8c0.2-0.2,0.6-0.2,0.8,0c1.2,1.3,2.5,2.5,3.7,3.7    c0.2,0.2,0.2,0.5,0,0.8C333.2,205.5,333.1,205.6,333,205.6z M488.4,203.4c-0.1,0-0.3-0.1-0.4-0.2c-0.2-0.2-0.2-0.5,0-0.8    c1.2-1.2,2.4-2.5,3.6-3.8c0.2-0.2,0.5-0.2,0.8,0c0.2,0.2,0.2,0.5,0,0.8c-1.2,1.3-2.4,2.6-3.6,3.9    C488.7,203.3,488.6,203.4,488.4,203.4z M324.3,196.3c-0.2,0-0.3-0.1-0.4-0.2c-1.1-1.4-2.2-2.7-3.3-4.2c-0.2-0.2-0.1-0.6,0.1-0.7    c0.2-0.2,0.6-0.1,0.7,0.1c1.1,1.4,2.2,2.8,3.3,4.1c0.2,0.2,0.2,0.6-0.1,0.8C324.5,196.3,324.4,196.3,324.3,196.3z M496.8,193.9    c-0.1,0-0.2,0-0.3-0.1c-0.2-0.2-0.3-0.5-0.1-0.7c1.1-1.4,2.1-2.8,3.2-4.2c0.2-0.2,0.5-0.3,0.7-0.1c0.2,0.2,0.3,0.5,0.1,0.7    c-1,1.4-2.1,2.9-3.2,4.2C497.1,193.8,497,193.9,496.8,193.9z M316.7,186.2c-0.2,0-0.3-0.1-0.4-0.2c-1-1.5-1.9-3-2.8-4.5    c-0.1-0.3-0.1-0.6,0.2-0.7c0.3-0.1,0.6-0.1,0.7,0.2c0.9,1.5,1.8,3,2.8,4.5c0.2,0.2,0.1,0.6-0.2,0.7    C316.9,186.1,316.8,186.2,316.7,186.2z M504.1,183.5c-0.1,0-0.2,0-0.3-0.1c-0.3-0.2-0.3-0.5-0.2-0.7c0.9-1.5,1.8-3,2.7-4.5    c0.1-0.3,0.5-0.4,0.7-0.2c0.3,0.1,0.4,0.5,0.2,0.7c-0.9,1.5-1.8,3.1-2.7,4.6C504.4,183.4,504.3,183.5,504.1,183.5z M310.4,175.2    c-0.2,0-0.4-0.1-0.5-0.3c-0.8-1.6-1.6-3.2-2.3-4.8c-0.1-0.3,0-0.6,0.3-0.7c0.3-0.1,0.6,0,0.7,0.3c0.7,1.6,1.5,3.2,2.3,4.7    c0.1,0.3,0,0.6-0.2,0.7C310.6,175.2,310.5,175.2,310.4,175.2z M510.1,172.3c-0.1,0-0.2,0-0.2-0.1c-0.3-0.1-0.4-0.4-0.3-0.7    c0.7-1.6,1.5-3.2,2.1-4.8c0.1-0.3,0.4-0.4,0.7-0.3c0.3,0.1,0.4,0.4,0.3,0.7c-0.7,1.6-1.4,3.3-2.1,4.9    C510.5,172.2,510.3,172.3,510.1,172.3z M305.4,163.6c-0.2,0-0.4-0.1-0.5-0.3c-0.6-1.7-1.2-3.3-1.7-5c-0.1-0.3,0.1-0.6,0.3-0.7    c0.3-0.1,0.6,0.1,0.7,0.3c0.5,1.7,1.1,3.3,1.7,5c0.1,0.3,0,0.6-0.3,0.7C305.5,163.6,305.4,163.6,305.4,163.6z M514.9,160.6    c-0.1,0-0.1,0-0.2,0c-0.3-0.1-0.4-0.4-0.3-0.7c0.6-1.7,1.1-3.4,1.6-5c0.1-0.3,0.4-0.4,0.7-0.4c0.3,0.1,0.4,0.4,0.4,0.7    c-0.5,1.7-1,3.4-1.6,5.1C515.3,160.4,515.1,160.6,514.9,160.6z M301.7,151.5c-0.2,0-0.5-0.2-0.5-0.4c-0.4-1.7-0.8-3.5-1.1-5.2    c-0.1-0.3,0.1-0.6,0.4-0.6c0.3-0.1,0.6,0.1,0.6,0.4c0.3,1.7,0.7,3.4,1.1,5.1c0.1,0.3-0.1,0.6-0.4,0.6    C301.8,151.5,301.7,151.5,301.7,151.5z M518.2,148.3c0,0-0.1,0-0.1,0c-0.3-0.1-0.5-0.3-0.4-0.6c0.4-1.7,0.7-3.4,1-5.2    c0-0.3,0.3-0.5,0.6-0.4c0.3,0,0.5,0.3,0.4,0.6c-0.3,1.7-0.6,3.5-1,5.2C518.7,148.1,518.4,148.3,518.2,148.3z M299.4,139    c-0.3,0-0.5-0.2-0.5-0.5c-0.2-1.7-0.4-3.5-0.5-5.3c0-0.3,0.2-0.5,0.5-0.6c0.3,0,0.5,0.2,0.6,0.5c0.1,1.7,0.3,3.5,0.5,5.2    C300,138.7,299.8,139,299.4,139C299.4,139,299.4,139,299.4,139z M520.1,135.8C520.1,135.8,520.1,135.8,520.1,135.8    c-0.3,0-0.6-0.3-0.5-0.6c0.2-1.7,0.3-3.5,0.4-5.2c0-0.3,0.3-0.5,0.6-0.5c0.3,0,0.5,0.3,0.5,0.6c-0.1,1.8-0.2,3.5-0.4,5.3    C520.6,135.6,520.4,135.8,520.1,135.8z M298.5,126.3c-0.3,0-0.5-0.2-0.5-0.5c0-0.4,0-0.8,0-1.2c0-1.3,0-2.7,0.1-4.1    c0-0.3,0.3-0.5,0.6-0.5c0.3,0,0.5,0.3,0.5,0.6c0,1.3-0.1,2.7-0.1,4c0,0.4,0,0.8,0,1.2C299.1,126.1,298.8,126.3,298.5,126.3    C298.5,126.3,298.5,126.3,298.5,126.3z M520.6,123.1c-0.3,0-0.5-0.2-0.5-0.5c0-1.7-0.1-3.5-0.2-5.3l0-0.2c0-0.3,0.2-0.5,0.5-0.6    c0.3,0,0.5,0.2,0.6,0.5l0,0.2c0.1,1.8,0.2,3.5,0.2,5.3C521.1,122.9,520.9,123.1,520.6,123.1C520.6,123.1,520.6,123.1,520.6,123.1    z M299.1,113.7C299.1,113.7,299.1,113.7,299.1,113.7c-0.3,0-0.6-0.3-0.5-0.6c0.2-1.8,0.4-3.5,0.7-5.3c0-0.3,0.3-0.5,0.6-0.4    c0.3,0,0.5,0.3,0.4,0.6c-0.3,1.7-0.5,3.5-0.7,5.2C299.6,113.5,299.4,113.7,299.1,113.7z M519.6,110.3c-0.3,0-0.5-0.2-0.5-0.5    c-0.2-1.7-0.5-3.5-0.8-5.2c-0.1-0.3,0.1-0.6,0.4-0.6c0.3-0.1,0.6,0.1,0.6,0.4c0.3,1.7,0.6,3.5,0.8,5.2    C520.2,110,520,110.3,519.6,110.3C519.6,110.3,519.6,110.3,519.6,110.3z M301.1,101.2c0,0-0.1,0-0.1,0c-0.3-0.1-0.5-0.3-0.4-0.6    c0.4-1.7,0.8-3.5,1.3-5.2c0.1-0.3,0.4-0.5,0.7-0.4c0.3,0.1,0.5,0.4,0.4,0.7c-0.5,1.7-0.9,3.4-1.3,5.1    C301.6,101,301.4,101.2,301.1,101.2z M517.2,97.9c-0.2,0-0.5-0.2-0.5-0.4c-0.4-1.7-0.9-3.4-1.4-5.1c-0.1-0.3,0.1-0.6,0.4-0.7    c0.3-0.1,0.6,0.1,0.7,0.4c0.5,1.7,1,3.4,1.4,5.1c0.1,0.3-0.1,0.6-0.4,0.6C517.3,97.9,517.2,97.9,517.2,97.9z M304.6,89    c-0.1,0-0.1,0-0.2,0c-0.3-0.1-0.4-0.4-0.3-0.7c0.6-1.7,1.2-3.3,1.9-5c0.1-0.3,0.4-0.4,0.7-0.3c0.3,0.1,0.4,0.4,0.3,0.7    c-0.7,1.6-1.3,3.3-1.8,4.9C305,88.8,304.8,89,304.6,89z M513.4,85.8c-0.2,0-0.4-0.1-0.5-0.3c-0.6-1.6-1.3-3.3-2-4.9    c-0.1-0.3,0-0.6,0.3-0.7c0.3-0.1,0.6,0,0.7,0.3c0.7,1.6,1.4,3.3,2,4.9c0.1,0.3,0,0.6-0.3,0.7C513.5,85.8,513.5,85.8,513.4,85.8z     M309.4,77.2c-0.1,0-0.2,0-0.2-0.1c-0.3-0.1-0.4-0.4-0.2-0.7c0.8-1.6,1.6-3.2,2.4-4.7c0.1-0.3,0.5-0.4,0.7-0.2    c0.3,0.1,0.4,0.5,0.2,0.7c-0.8,1.5-1.6,3.1-2.4,4.7C309.8,77.1,309.6,77.2,309.4,77.2z M508.2,74.2c-0.2,0-0.4-0.1-0.5-0.3    c-0.8-1.5-1.6-3.1-2.5-4.6c-0.1-0.3-0.1-0.6,0.2-0.7c0.3-0.1,0.6-0.1,0.7,0.2c0.9,1.5,1.7,3.1,2.5,4.6c0.1,0.3,0,0.6-0.2,0.7    C508.4,74.2,508.3,74.2,508.2,74.2z M315.6,66.1c-0.1,0-0.2,0-0.3-0.1c-0.2-0.2-0.3-0.5-0.2-0.7c0.9-1.5,1.9-3,2.9-4.4    c0.2-0.2,0.5-0.3,0.7-0.1c0.2,0.2,0.3,0.5,0.1,0.7c-1,1.4-2,2.9-2.9,4.4C315.9,66,315.7,66.1,315.6,66.1z M501.8,63.3    c-0.2,0-0.3-0.1-0.4-0.2c-1-1.4-2-2.9-3-4.3c-0.2-0.2-0.1-0.6,0.1-0.7c0.2-0.2,0.6-0.1,0.7,0.1c1.1,1.4,2.1,2.9,3.1,4.3    c0.2,0.2,0.1,0.6-0.1,0.7C502,63.3,501.9,63.3,501.8,63.3z M322.9,55.8c-0.1,0-0.2,0-0.3-0.1c-0.2-0.2-0.3-0.5-0.1-0.7    c1.1-1.4,2.3-2.7,3.4-4.1c0.2-0.2,0.5-0.2,0.8,0c0.2,0.2,0.2,0.5,0,0.8c-1.2,1.3-2.3,2.7-3.4,4C323.2,55.7,323.1,55.8,322.9,55.8    z M494.1,53.2c-0.2,0-0.3-0.1-0.4-0.2c-1.1-1.3-2.3-2.6-3.5-3.9c-0.2-0.2-0.2-0.6,0-0.8c0.2-0.2,0.6-0.2,0.8,0    c1.2,1.3,2.4,2.6,3.5,4c0.2,0.2,0.2,0.6-0.1,0.8C494.4,53.2,494.2,53.2,494.1,53.2z M331.4,46.4c-0.1,0-0.3-0.1-0.4-0.2    c-0.2-0.2-0.2-0.5,0-0.8c1.3-1.2,2.5-2.5,3.9-3.6c0.2-0.2,0.6-0.2,0.8,0c0.2,0.2,0.2,0.6,0,0.8c-1.3,1.2-2.6,2.4-3.8,3.6    C331.7,46.3,331.5,46.4,331.4,46.4z M485.4,44.1c-0.1,0-0.3,0-0.4-0.1c-1.3-1.2-2.6-2.4-3.9-3.5c-0.2-0.2-0.3-0.5-0.1-0.8    c0.2-0.2,0.5-0.3,0.8-0.1c1.3,1.1,2.7,2.3,4,3.5c0.2,0.2,0.2,0.5,0,0.8C485.6,44,485.5,44.1,485.4,44.1z M340.9,38    c-0.2,0-0.3-0.1-0.4-0.2c-0.2-0.2-0.1-0.6,0.1-0.7c1.4-1.1,2.8-2.2,4.2-3.2c0.2-0.2,0.6-0.1,0.7,0.1c0.2,0.2,0.1,0.6-0.1,0.7    c-1.4,1-2.8,2.1-4.2,3.2C341.1,37.9,341,38,340.9,38z M475.6,36c-0.1,0-0.2,0-0.3-0.1c-1.4-1-2.8-2.1-4.3-3    c-0.2-0.2-0.3-0.5-0.1-0.7c0.2-0.2,0.5-0.3,0.7-0.1c1.5,1,2.9,2,4.3,3.1c0.2,0.2,0.3,0.5,0.1,0.7C475.9,35.9,475.8,36,475.6,36z     M351.3,30.7c-0.2,0-0.4-0.1-0.5-0.3c-0.2-0.3-0.1-0.6,0.2-0.7c1.5-0.9,3-1.8,4.6-2.7c0.3-0.1,0.6,0,0.7,0.2    c0.1,0.3,0,0.6-0.2,0.7c-1.5,0.8-3,1.7-4.5,2.7C351.5,30.7,351.4,30.7,351.3,30.7z M465,29c-0.1,0-0.2,0-0.3-0.1    c-1.5-0.9-3.1-1.7-4.6-2.5c-0.3-0.1-0.4-0.5-0.2-0.7c0.1-0.3,0.5-0.4,0.7-0.2c1.6,0.8,3.1,1.7,4.7,2.5c0.3,0.1,0.3,0.5,0.2,0.7    C465.4,28.9,465.2,29,465,29z M362.4,24.7c-0.2,0-0.4-0.1-0.5-0.3c-0.1-0.3,0-0.6,0.3-0.7c1.6-0.7,3.2-1.5,4.9-2.1    c0.3-0.1,0.6,0,0.7,0.3c0.1,0.3,0,0.6-0.3,0.7c-1.6,0.7-3.2,1.4-4.8,2.1C362.5,24.7,362.5,24.7,362.4,24.7z M453.7,23.3    c-0.1,0-0.1,0-0.2,0c-1.6-0.7-3.2-1.4-4.9-2c-0.3-0.1-0.4-0.4-0.3-0.7c0.1-0.3,0.4-0.4,0.7-0.3c1.7,0.6,3.3,1.3,4.9,2    c0.3,0.1,0.4,0.4,0.3,0.7C454.1,23.2,453.9,23.3,453.7,23.3z M374.2,20c-0.2,0-0.4-0.1-0.5-0.4c-0.1-0.3,0.1-0.6,0.3-0.7    c1.7-0.6,3.4-1.1,5.1-1.6c0.3-0.1,0.6,0.1,0.7,0.4c0.1,0.3-0.1,0.6-0.4,0.7c-1.7,0.5-3.4,1-5,1.6C374.3,19.9,374.2,20,374.2,20z     M441.8,18.9c-0.1,0-0.1,0-0.2,0c-1.7-0.5-3.4-1-5.1-1.4c-0.3-0.1-0.5-0.4-0.4-0.6c0.1-0.3,0.4-0.5,0.6-0.4    c1.7,0.4,3.4,0.9,5.1,1.4c0.3,0.1,0.4,0.4,0.4,0.7C442.2,18.8,442,18.9,441.8,18.9z M386.4,16.6c-0.2,0-0.5-0.2-0.5-0.4    c-0.1-0.3,0.1-0.6,0.4-0.6c1.7-0.4,3.5-0.7,5.2-1c0.3,0,0.6,0.1,0.6,0.4c0,0.3-0.1,0.6-0.4,0.6c-1.7,0.3-3.5,0.6-5.2,1    C386.5,16.6,386.4,16.6,386.4,16.6z M429.4,15.9C429.4,15.9,429.4,15.9,429.4,15.9c-1.8-0.3-3.6-0.6-5.3-0.8    c-0.3,0-0.5-0.3-0.5-0.6c0-0.3,0.3-0.5,0.6-0.5c1.7,0.2,3.5,0.5,5.2,0.8c0.3,0.1,0.5,0.3,0.4,0.6    C429.9,15.8,429.7,15.9,429.4,15.9z M398.9,14.7c-0.3,0-0.5-0.2-0.5-0.5c0-0.3,0.2-0.6,0.5-0.6c1.1-0.1,2.2-0.2,3.3-0.3    c0.7,0,1.3-0.1,2-0.1c0.3,0,0.5,0.2,0.6,0.5c0,0.3-0.2,0.5-0.5,0.6c-0.7,0-1.3,0.1-2,0.1C401.1,14.5,400,14.6,398.9,14.7    C398.9,14.7,398.9,14.7,398.9,14.7z M416.9,14.4C416.8,14.4,416.8,14.4,416.9,14.4c-1.8-0.1-3.5-0.2-5.3-0.2    c-0.3,0-0.5-0.2-0.5-0.5c0-0.3,0.2-0.5,0.5-0.5c0,0,0,0,0,0c1.8,0,3.5,0.1,5.3,0.2c0.3,0,0.5,0.3,0.5,0.6    C417.4,14.2,417.1,14.4,416.9,14.4z"></path>		</g>		<g>			<g>				<g>					<linearGradient id="SVGID_1_" gradientUnits="userSpaceOnUse" x1="238.4016" y1="124.6375" x2="447.3205" y2="124.6375">						<stop offset="0" style="stop-color:#EE4223"></stop>						<stop offset="1" style="stop-color:#ED3360"></stop>					</linearGradient>					<path class="st2" d="M447.3,112.3l-5.1,31.9l-1,6.1c0,4.7-10.1,67.1-15.4,67.1L343,160.2L251,224c-5.2,0-10.7-67.1-10.7-71.9      l-0.4-7.9l-1.5-31.8l14.8-12.8L337,27.2c3.5-2.5,8.4-2.5,11.8,0l83.8,72.5L447.3,112.3z"></path>				</g>			</g>		</g>		<g>			<rect x="258.3" y="63.9" class="st3" width="169" height="169"></rect>			<path class="st1" d="M428.7,234.3H257V62.6h171.7V234.3z M259.7,231.6H426V65.3H259.7V231.6z"></path>		</g>		<g>			<g>									<linearGradient id="SVGID_00000078742355308450491990000010210187900516933811_" gradientUnits="userSpaceOnUse" x1="238.4016" y1="183.2159" x2="447.3205" y2="183.2159">					<stop offset="0" style="stop-color:#EE4223"></stop>					<stop offset="1" style="stop-color:#ED3360"></stop>				</linearGradient>									<polygon style="fill:url(#SVGID_00000078742355308450491990000010210187900516933811_);stroke:#263238;stroke-width:1.9072;stroke-linecap:round;stroke-linejoin:round;" points="     343,195.7 238.4,112.4 238.4,254 447.3,254 447.3,112.4     "></polygon>			</g>		</g>		<g>			<g>									<linearGradient id="SVGID_00000029760663401307212920000010445705117929421221_" gradientUnits="userSpaceOnUse" x1="238.4016" y1="183.2159" x2="327.2892" y2="183.2159">					<stop offset="0" style="stop-color:#EE4223"></stop>					<stop offset="1" style="stop-color:#ED3360"></stop>				</linearGradient>									<polygon style="fill:url(#SVGID_00000029760663401307212920000010445705117929421221_);stroke:#263238;stroke-width:1.9072;stroke-linecap:round;stroke-linejoin:round;" points="     238.4,112.4 238.4,254 327.3,183.2     "></polygon>			</g>		</g>		<g>			<g>									<linearGradient id="SVGID_00000150813044683480365890000016265955941625815213_" gradientUnits="userSpaceOnUse" x1="358.4329" y1="183.2159" x2="447.3205" y2="183.2159">					<stop offset="0" style="stop-color:#EE4223"></stop>					<stop offset="1" style="stop-color:#ED3360"></stop>				</linearGradient>									<polygon style="fill:url(#SVGID_00000150813044683480365890000016265955941625815213_);stroke:#263238;stroke-width:1.9072;stroke-linecap:round;stroke-linejoin:round;" points="     447.3,112.4 447.3,254 358.4,183.2     "></polygon>			</g>		</g>		<rect x="281.1" y="85.8" class="st7" width="123.6" height="18.3"></rect>		<rect x="281.1" y="117.2" class="st7" width="123.6" height="18.3"></rect>	</g></g></svg>