<svg viewBox="0 0 32 32" xml:space="preserve" xmlns="http://www.w3.org/2000/svg"><path d="M16 0C7.164 0 0 7.164 0 16s7.164 16 16 16 16-7.164 16-16S24.836 0 16 0zm-4.096 21.951a1.846 1.846 0 0 1-1.85-1.843 1.852 1.852 0 0 1 3.702 0c0 1.02-.828 1.843-1.852 1.843zm4.647-.003a6.466 6.466 0 0 0-1.904-4.604 6.453 6.453 0 0 0-4.594-1.907v-2.664c5.057 0 9.173 4.116 9.173 9.175h-2.675zm4.723-.001c0-6.193-5.035-11.234-11.22-11.233V8.049c7.66 0 13.893 6.237 13.893 13.898h-2.673z" fill="#cea95f" class="fill-000000"></path></svg>